%TF.GenerationSoftware,KiCad,Pcbnew,8.0.6-8.0.6-0~ubuntu22.04.1*%
%TF.CreationDate,2024-11-25T01:07:46+09:00*%
%TF.ProjectId,Cduino,43647569-6e6f-42e6-9b69-6361645f7063,rev?*%
%TF.SameCoordinates,Original*%
%TF.FileFunction,Legend,Bot*%
%TF.FilePolarity,Positive*%
%FSLAX46Y46*%
G04 Gerber Fmt 4.6, Leading zero omitted, Abs format (unit mm)*
G04 Created by KiCad (PCBNEW 8.0.6-8.0.6-0~ubuntu22.04.1) date 2024-11-25 01:07:46*
%MOMM*%
%LPD*%
G01*
G04 APERTURE LIST*
%ADD10C,0.000000*%
G04 APERTURE END LIST*
D10*
%TO.C,G\u002A\u002A\u002A*%
G36*
X142579791Y-37053301D02*
G01*
X142804640Y-37245334D01*
X142869761Y-37350248D01*
X142921993Y-37499632D01*
X142954787Y-37713197D01*
X142973215Y-38025975D01*
X142982347Y-38473001D01*
X142981612Y-38943794D01*
X142970552Y-39526150D01*
X142950930Y-40131023D01*
X142924690Y-40683924D01*
X142855238Y-41890424D01*
X143094023Y-41891429D01*
X143264797Y-41901612D01*
X143742985Y-41997735D01*
X144273120Y-42179115D01*
X144802929Y-42425976D01*
X145280142Y-42718542D01*
X145312702Y-42741854D01*
X145726033Y-43067382D01*
X146055413Y-43401229D01*
X146329567Y-43782935D01*
X146577216Y-44252043D01*
X146827085Y-44848092D01*
X146895349Y-45033886D01*
X146971025Y-45296278D01*
X147016818Y-45573402D01*
X147040179Y-45916735D01*
X147048562Y-46377757D01*
X147049297Y-46535644D01*
X147045117Y-46928701D01*
X147024525Y-47222824D01*
X146978895Y-47471088D01*
X146899600Y-47726572D01*
X146778015Y-48042351D01*
X146766494Y-48070937D01*
X146454530Y-48721187D01*
X146111618Y-49211708D01*
X145740412Y-49538673D01*
X145697154Y-49566626D01*
X145585364Y-49658063D01*
X145526523Y-49774314D01*
X145505311Y-49963504D01*
X145506407Y-50273758D01*
X145502180Y-50560738D01*
X145438727Y-50999913D01*
X145303074Y-51289238D01*
X145095930Y-51426724D01*
X144940936Y-51512268D01*
X144839974Y-51732430D01*
X144734014Y-51983758D01*
X144500258Y-52299768D01*
X144174631Y-52633676D01*
X143789597Y-52958313D01*
X143377621Y-53246508D01*
X142971165Y-53471090D01*
X142602693Y-53604891D01*
X142442031Y-53683737D01*
X142277457Y-53905893D01*
X142103642Y-54205832D01*
X141848348Y-54393801D01*
X141509493Y-54443449D01*
X141446120Y-54442395D01*
X141237511Y-54462163D01*
X141128650Y-54510330D01*
X141110236Y-54532285D01*
X140957694Y-54585494D01*
X140746593Y-54568420D01*
X140553303Y-54484492D01*
X140435533Y-54342394D01*
X140340993Y-54124659D01*
X140330573Y-54087876D01*
X140256825Y-53940438D01*
X140115282Y-53845655D01*
X139855847Y-53766546D01*
X139386307Y-53615124D01*
X138758768Y-53296061D01*
X138214272Y-52878283D01*
X137780644Y-52384440D01*
X137485707Y-51837180D01*
X137432756Y-51714089D01*
X137323148Y-51530143D01*
X137231451Y-51457757D01*
X137222694Y-51457110D01*
X137094272Y-51384968D01*
X136942762Y-51229767D01*
X136893871Y-51152670D01*
X136814172Y-50922403D01*
X136778879Y-50656916D01*
X136788095Y-50405839D01*
X136841926Y-50218799D01*
X136940475Y-50145424D01*
X136975992Y-50151695D01*
X137050040Y-50253870D01*
X137080906Y-50498951D01*
X137084882Y-50566263D01*
X137123352Y-50824816D01*
X137184165Y-51006951D01*
X137234439Y-51081148D01*
X137267342Y-51061346D01*
X137276568Y-50891254D01*
X137276650Y-50885136D01*
X137306763Y-50680915D01*
X137373275Y-50562907D01*
X137479367Y-50565922D01*
X137575111Y-50687234D01*
X137616512Y-50883081D01*
X137637640Y-51036828D01*
X137737496Y-51353022D01*
X137897776Y-51718993D01*
X138094464Y-52082082D01*
X138303545Y-52389628D01*
X138457344Y-52572742D01*
X138810691Y-52905079D01*
X139218137Y-53160636D01*
X139717928Y-53360676D01*
X140348309Y-53526462D01*
X140515284Y-53597937D01*
X140581142Y-53750936D01*
X140581192Y-53758512D01*
X140627648Y-53992811D01*
X140737409Y-54177089D01*
X140875458Y-54251757D01*
X140996946Y-54211634D01*
X141098037Y-54051525D01*
X141170380Y-53746633D01*
X141173837Y-53726487D01*
X141250390Y-53505508D01*
X141349076Y-53439374D01*
X141435732Y-53526155D01*
X141476193Y-53763919D01*
X141487083Y-53952781D01*
X141536666Y-54114897D01*
X141638666Y-54126916D01*
X141807451Y-53999033D01*
X141952439Y-53812751D01*
X141969351Y-53611875D01*
X141955013Y-53517286D01*
X142008652Y-53422371D01*
X142192000Y-53362276D01*
X142221444Y-53355606D01*
X142788762Y-53158207D01*
X143355853Y-52844752D01*
X143856383Y-52451540D01*
X144130403Y-52180237D01*
X144371091Y-51888745D01*
X144514792Y-51610945D01*
X144584341Y-51299589D01*
X144602570Y-50907424D01*
X144604490Y-50722214D01*
X144621242Y-50475096D01*
X144660787Y-50349654D01*
X144729809Y-50314757D01*
X144747871Y-50315837D01*
X144824937Y-50386118D01*
X144830714Y-50586281D01*
X144840537Y-50824885D01*
X144905359Y-51046040D01*
X144964845Y-51149343D01*
X145030086Y-51181414D01*
X145121954Y-51075834D01*
X145125743Y-51070419D01*
X145190570Y-50882541D01*
X145227800Y-50594539D01*
X145235720Y-50270556D01*
X145212616Y-49974735D01*
X145156779Y-49771219D01*
X145135483Y-49724668D01*
X145146959Y-49609869D01*
X145296194Y-49501833D01*
X145325969Y-49485224D01*
X145654632Y-49217917D01*
X145974760Y-48816348D01*
X146267650Y-48312273D01*
X146514596Y-47737448D01*
X146696898Y-47123628D01*
X146698858Y-47114973D01*
X146738950Y-46733153D01*
X146724532Y-46250469D01*
X146662101Y-45722407D01*
X146558155Y-45204450D01*
X146419190Y-44752081D01*
X146370097Y-44635426D01*
X146103587Y-44164462D01*
X145739125Y-43680740D01*
X145318408Y-43235118D01*
X144883131Y-42878457D01*
X144671582Y-42744080D01*
X144224891Y-42511877D01*
X143755556Y-42321135D01*
X143316242Y-42191951D01*
X142959614Y-42144424D01*
X142636456Y-42144424D01*
X142589969Y-41699924D01*
X142579433Y-41536232D01*
X142575127Y-41183037D01*
X142584574Y-40759195D01*
X142607038Y-40324091D01*
X142645045Y-39665826D01*
X142667037Y-38969382D01*
X142664043Y-38383594D01*
X142636543Y-37922738D01*
X142585017Y-37601087D01*
X142509944Y-37432916D01*
X142416848Y-37350477D01*
X142321526Y-37342956D01*
X142183435Y-37451083D01*
X141980271Y-37694490D01*
X141750099Y-38149340D01*
X141553328Y-38762835D01*
X141550699Y-38773030D01*
X141494935Y-39033596D01*
X141458066Y-39324560D01*
X141438109Y-39680566D01*
X141433084Y-40136260D01*
X141441008Y-40726286D01*
X141470142Y-42144481D01*
X141242306Y-42144453D01*
X141111657Y-42131056D01*
X140978101Y-42069324D01*
X140957721Y-41987323D01*
X141075302Y-41918575D01*
X141125002Y-41903390D01*
X141204832Y-41828580D01*
X141170725Y-41670646D01*
X141148342Y-41559339D01*
X141120463Y-41295350D01*
X141093929Y-40920268D01*
X141070933Y-40466044D01*
X141053668Y-39964629D01*
X141035199Y-39428880D01*
X140997765Y-38804658D01*
X140946815Y-38339339D01*
X140881830Y-38027069D01*
X140840862Y-37900482D01*
X140700409Y-37586566D01*
X140555365Y-37441901D01*
X140406357Y-37466489D01*
X140254010Y-37660335D01*
X140098949Y-38023440D01*
X140076424Y-38095486D01*
X140003000Y-38477623D01*
X139957938Y-38970244D01*
X139940710Y-39528150D01*
X139950790Y-40106140D01*
X139987650Y-40659017D01*
X140050762Y-41141580D01*
X140139601Y-41508631D01*
X140218038Y-41754930D01*
X140269835Y-41961560D01*
X140274485Y-42055970D01*
X140179415Y-42068775D01*
X140048261Y-41951996D01*
X139908928Y-41725314D01*
X139782423Y-41416049D01*
X139751321Y-41305915D01*
X139686926Y-40944891D01*
X139640309Y-40486999D01*
X139611791Y-39970099D01*
X139601694Y-39432050D01*
X139610340Y-38910711D01*
X139638048Y-38443940D01*
X139685141Y-38069596D01*
X139751941Y-37825538D01*
X139864666Y-37615976D01*
X140075574Y-37333623D01*
X140297948Y-37137740D01*
X140496475Y-37064424D01*
X140645780Y-37104362D01*
X140860709Y-37273909D01*
X141051401Y-37539308D01*
X141182843Y-37859976D01*
X141276360Y-38207268D01*
X141475237Y-37815943D01*
X141515167Y-37740228D01*
X141770076Y-37365703D01*
X142044494Y-37121218D01*
X142320404Y-37014507D01*
X142579791Y-37053301D01*
G37*
G36*
X144672108Y-53254165D02*
G01*
X144727743Y-53381856D01*
X144678417Y-53609832D01*
X144660549Y-53651240D01*
X144575952Y-53740755D01*
X144505353Y-53681583D01*
X144475809Y-53489757D01*
X144501983Y-53311485D01*
X144602809Y-53235757D01*
X144672108Y-53254165D01*
G37*
G36*
X144088716Y-53264189D02*
G01*
X144137682Y-53382376D01*
X144080698Y-53517979D01*
X144030930Y-53557390D01*
X143925513Y-53552590D01*
X143883142Y-53405091D01*
X143906714Y-53306343D01*
X144010142Y-53235757D01*
X144088716Y-53264189D01*
G37*
G36*
X145262978Y-52835278D02*
G01*
X145376494Y-52999560D01*
X145449349Y-53188588D01*
X145445554Y-53326768D01*
X145440066Y-53335500D01*
X145375778Y-53396412D01*
X145305001Y-53343280D01*
X145197650Y-53155295D01*
X145092618Y-52917020D01*
X145083756Y-52782672D01*
X145184007Y-52777405D01*
X145262978Y-52835278D01*
G37*
G36*
X145482700Y-52116659D02*
G01*
X145677646Y-52202707D01*
X145844443Y-52318164D01*
X145915142Y-52427337D01*
X145914085Y-52455929D01*
X145868522Y-52544251D01*
X145738223Y-52529355D01*
X145499205Y-52410257D01*
X145326096Y-52298417D01*
X145242679Y-52190333D01*
X145302148Y-52105321D01*
X145327553Y-52095715D01*
X145482700Y-52116659D01*
G37*
G36*
X145841520Y-51448234D02*
G01*
X145962268Y-51503535D01*
X145976541Y-51583704D01*
X145856328Y-51652492D01*
X145832107Y-51658570D01*
X145582327Y-51697822D01*
X145395775Y-51688358D01*
X145322475Y-51632087D01*
X145340987Y-51560464D01*
X145452212Y-51490298D01*
X145696088Y-51445106D01*
X145841520Y-51448234D01*
G37*
G36*
X136919291Y-42459680D02*
G01*
X136939882Y-42714214D01*
X136940475Y-43072338D01*
X137588528Y-42649285D01*
X137969757Y-42422505D01*
X138381997Y-42220596D01*
X138761389Y-42075672D01*
X139072619Y-42001075D01*
X139280373Y-42010146D01*
X139355175Y-42053924D01*
X139372678Y-42154645D01*
X139250765Y-42265113D01*
X139005386Y-42364759D01*
X138901488Y-42396494D01*
X138171313Y-42716995D01*
X137501206Y-43181721D01*
X136909702Y-43772591D01*
X136415335Y-44471528D01*
X136036638Y-45260453D01*
X135986240Y-45405099D01*
X135844358Y-46048015D01*
X135796234Y-46752924D01*
X135843012Y-47455958D01*
X135985837Y-48093248D01*
X136074461Y-48357699D01*
X136194527Y-48675838D01*
X136319423Y-48930449D01*
X136480485Y-49182114D01*
X136709047Y-49491411D01*
X136873295Y-49720449D01*
X136981051Y-49897399D01*
X137006509Y-49980613D01*
X136883350Y-49995592D01*
X136692421Y-49903329D01*
X136472096Y-49728557D01*
X136260632Y-49496126D01*
X136148023Y-49350000D01*
X136002355Y-49162690D01*
X135921574Y-49061155D01*
X135906775Y-49052080D01*
X135789728Y-49082351D01*
X135619140Y-49197751D01*
X135591518Y-49220392D01*
X135310175Y-49416800D01*
X134995665Y-49591433D01*
X134703332Y-49716553D01*
X134488515Y-49764424D01*
X134387067Y-49776632D01*
X134316125Y-49827924D01*
X134318550Y-49849106D01*
X134387599Y-50009134D01*
X134518181Y-50213788D01*
X134664800Y-50397823D01*
X134781960Y-50495992D01*
X134840003Y-50532785D01*
X134908475Y-50673990D01*
X134879120Y-50749114D01*
X134762476Y-50773003D01*
X134519803Y-50750167D01*
X134281596Y-50704375D01*
X133882244Y-50579095D01*
X133525544Y-50413979D01*
X133274611Y-50235131D01*
X133238009Y-50199694D01*
X133135583Y-50134630D01*
X133006886Y-50142582D01*
X132787849Y-50221796D01*
X132419556Y-50322688D01*
X131860187Y-50350319D01*
X131263698Y-50261133D01*
X130671451Y-50062289D01*
X130124809Y-49760945D01*
X130078252Y-49728635D01*
X129708766Y-49431576D01*
X129445183Y-49117602D01*
X129236500Y-48727372D01*
X129150048Y-48557079D01*
X128946493Y-48231941D01*
X128722157Y-47937560D01*
X128430118Y-47567190D01*
X128156524Y-47102011D01*
X127975375Y-46600115D01*
X127872527Y-46019815D01*
X127833836Y-45319424D01*
X127828702Y-45069281D01*
X127810555Y-44512397D01*
X127784616Y-43926750D01*
X127754681Y-43404129D01*
X127750703Y-43341503D01*
X127750974Y-42506687D01*
X128000781Y-42506687D01*
X128005019Y-43245091D01*
X128010533Y-43310479D01*
X128036883Y-43666617D01*
X128066921Y-44126799D01*
X128097358Y-44638724D01*
X128124901Y-45150091D01*
X128146652Y-45550227D01*
X128175915Y-45955987D01*
X128211478Y-46256856D01*
X128259473Y-46489447D01*
X128326030Y-46690376D01*
X128417280Y-46896255D01*
X128520160Y-47089998D01*
X128748905Y-47450621D01*
X128985008Y-47758297D01*
X129111667Y-47915909D01*
X129348223Y-48268868D01*
X129532132Y-48613280D01*
X129579943Y-48711773D01*
X129879042Y-49123307D01*
X130290022Y-49473668D01*
X130778255Y-49749791D01*
X131309113Y-49938609D01*
X131847968Y-50027056D01*
X132360194Y-50002065D01*
X132811161Y-49850570D01*
X133064864Y-49746485D01*
X133286895Y-49749981D01*
X133416137Y-49894145D01*
X133440088Y-49931164D01*
X133583779Y-50053838D01*
X133800311Y-50183932D01*
X133843652Y-50205988D01*
X134074255Y-50316397D01*
X134180013Y-50339132D01*
X134181973Y-50268138D01*
X134101179Y-50097360D01*
X134031139Y-49933205D01*
X133990955Y-49694284D01*
X134045155Y-49533888D01*
X134188850Y-49486095D01*
X134447406Y-49463023D01*
X134791762Y-49351602D01*
X135145912Y-49174919D01*
X135449869Y-48958091D01*
X135779596Y-48667006D01*
X135588412Y-47995567D01*
X135557014Y-47882730D01*
X135477840Y-47546718D01*
X135434938Y-47230478D01*
X135422194Y-46871292D01*
X135433494Y-46406442D01*
X135445250Y-46181343D01*
X135518250Y-45574762D01*
X135662592Y-45039969D01*
X135898009Y-44517085D01*
X136244235Y-43946226D01*
X136433823Y-43597586D01*
X136586450Y-43040471D01*
X136588858Y-42422478D01*
X136441975Y-41733239D01*
X136333232Y-41278099D01*
X136272417Y-40555945D01*
X136264389Y-40256993D01*
X136181234Y-39790726D01*
X135993551Y-39345410D01*
X135681934Y-38865494D01*
X135414349Y-38552066D01*
X134945307Y-38138037D01*
X134422753Y-37796790D01*
X133904724Y-37570611D01*
X133805622Y-37541399D01*
X133060749Y-37414555D01*
X132286122Y-37428246D01*
X131511659Y-37572223D01*
X130767277Y-37836239D01*
X130082894Y-38210044D01*
X129488428Y-38683389D01*
X129013797Y-39246028D01*
X128888244Y-39446694D01*
X128556896Y-40123863D01*
X128289810Y-40894180D01*
X128100075Y-41705753D01*
X128000781Y-42506687D01*
X127750974Y-42506687D01*
X127751063Y-42233295D01*
X127894282Y-41201419D01*
X128184639Y-40225660D01*
X128626412Y-39285805D01*
X129042037Y-38704838D01*
X129605979Y-38177774D01*
X130297428Y-37723783D01*
X131098475Y-37356842D01*
X131363140Y-37262802D01*
X131634785Y-37187491D01*
X131913250Y-37143284D01*
X132252660Y-37122068D01*
X132707142Y-37115729D01*
X133125763Y-37118155D01*
X133460061Y-37133895D01*
X133719432Y-37170149D01*
X133952833Y-37233982D01*
X134209225Y-37332458D01*
X134800628Y-37643642D01*
X135430556Y-38132500D01*
X135975890Y-38732449D01*
X136404809Y-39413330D01*
X136498312Y-39626885D01*
X136578645Y-39958690D01*
X136601809Y-40375410D01*
X136602021Y-40405122D01*
X136627705Y-40787491D01*
X136687865Y-41233342D01*
X136770549Y-41652227D01*
X136788615Y-41729625D01*
X136865289Y-42109030D01*
X136913562Y-42422478D01*
X136919291Y-42459680D01*
G37*
G36*
X140748133Y-46952412D02*
G01*
X140819864Y-47119455D01*
X140831821Y-47172345D01*
X140927957Y-47292212D01*
X141055499Y-47282688D01*
X141149277Y-47139757D01*
X141151197Y-47132585D01*
X141228245Y-46988850D01*
X141307021Y-47001646D01*
X141343142Y-47165157D01*
X141326475Y-47295165D01*
X141203229Y-47489967D01*
X140987542Y-47563091D01*
X140905310Y-47575656D01*
X140835142Y-47642052D01*
X140795976Y-47703144D01*
X140652017Y-47779134D01*
X140584858Y-47801940D01*
X140523217Y-47850325D01*
X140609684Y-47916047D01*
X140685651Y-47971364D01*
X140750475Y-48075298D01*
X140742375Y-48105780D01*
X140642257Y-48152146D01*
X140485168Y-48133673D01*
X140344075Y-48054157D01*
X140283028Y-47952554D01*
X140242475Y-47751776D01*
X140217761Y-47608407D01*
X140115475Y-47423995D01*
X140044230Y-47331783D01*
X139988475Y-47176043D01*
X139989659Y-47156437D01*
X140057719Y-47066438D01*
X140177099Y-47075518D01*
X140273093Y-47182091D01*
X140281184Y-47201737D01*
X140372556Y-47304369D01*
X140458437Y-47261786D01*
X140496475Y-47091216D01*
X140531168Y-46952495D01*
X140633199Y-46895125D01*
X140748133Y-46952412D01*
G37*
G36*
X144115916Y-46596945D02*
G01*
X144203177Y-46755468D01*
X144275999Y-46959630D01*
X144306475Y-47143741D01*
X144294119Y-47256221D01*
X144235496Y-47301669D01*
X144142808Y-47204927D01*
X144031855Y-46975665D01*
X143956123Y-46744122D01*
X143956998Y-46593111D01*
X144052996Y-46547091D01*
X144115916Y-46596945D01*
G37*
G36*
X144489004Y-46560693D02*
G01*
X144633599Y-46758207D01*
X144674708Y-46829975D01*
X144774536Y-47027012D01*
X144814475Y-47144597D01*
X144808206Y-47192988D01*
X144741968Y-47222403D01*
X144622122Y-47126985D01*
X144471978Y-46921893D01*
X144463929Y-46908759D01*
X144352253Y-46670296D01*
X144368863Y-46535503D01*
X144384151Y-46523995D01*
X144489004Y-46560693D01*
G37*
G36*
X143618214Y-46680649D02*
G01*
X143737046Y-46812588D01*
X143839530Y-46972517D01*
X143883142Y-47106804D01*
X143872698Y-47157022D01*
X143774704Y-47224424D01*
X143747172Y-47216435D01*
X143648838Y-47108980D01*
X143555856Y-46930300D01*
X143499465Y-46749914D01*
X143510903Y-46637340D01*
X143525560Y-46630332D01*
X143618214Y-46680649D01*
G37*
G36*
X143279405Y-46727032D02*
G01*
X143375873Y-46840154D01*
X143425800Y-47013510D01*
X143400468Y-47167277D01*
X143348467Y-47184442D01*
X143251036Y-47110083D01*
X143160831Y-46973450D01*
X143121142Y-46827242D01*
X143132334Y-46780105D01*
X143238267Y-46716424D01*
X143279405Y-46727032D01*
G37*
G36*
X136913332Y-46658932D02*
G01*
X137037181Y-46788322D01*
X137147067Y-46963576D01*
X137194475Y-47116263D01*
X137146124Y-47212858D01*
X137027806Y-47198788D01*
X136889002Y-47076257D01*
X136856797Y-47028381D01*
X136786595Y-46849754D01*
X136782883Y-46696686D01*
X136851008Y-46631757D01*
X136913332Y-46658932D01*
G37*
G36*
X137782740Y-46533885D02*
G01*
X137906937Y-46702491D01*
X137916708Y-46721621D01*
X138004912Y-46920245D01*
X138041142Y-47050886D01*
X138016079Y-47130248D01*
X137923802Y-47136708D01*
X137804118Y-47046411D01*
X137700524Y-46881047D01*
X137676877Y-46818300D01*
X137641613Y-46614364D01*
X137685600Y-46512034D01*
X137782740Y-46533885D01*
G37*
G36*
X137396344Y-46643461D02*
G01*
X137486198Y-46808999D01*
X137533142Y-46989263D01*
X137527219Y-47061241D01*
X137469422Y-47134604D01*
X137367179Y-47068009D01*
X137241704Y-46870130D01*
X137233497Y-46853313D01*
X137167151Y-46646419D01*
X137184673Y-46524162D01*
X137267319Y-46514018D01*
X137396344Y-46643461D01*
G37*
G36*
X138183215Y-46575015D02*
G01*
X138310343Y-46716024D01*
X138403302Y-46870149D01*
X138415992Y-46980375D01*
X138346819Y-47046492D01*
X138225056Y-47007791D01*
X138085960Y-46805895D01*
X138077557Y-46789239D01*
X138015749Y-46608584D01*
X138034673Y-46508755D01*
X138068016Y-46504141D01*
X138183215Y-46575015D01*
G37*
G36*
X142998641Y-46106851D02*
G01*
X142924012Y-46285314D01*
X142917887Y-46293091D01*
X142764952Y-46487262D01*
X142696090Y-46533580D01*
X142439686Y-46594524D01*
X142167687Y-46545766D01*
X141956975Y-46395991D01*
X141905492Y-46304375D01*
X141891209Y-46231331D01*
X142207983Y-46231331D01*
X142274475Y-46293091D01*
X142320970Y-46321444D01*
X142475176Y-46371873D01*
X142528475Y-46293091D01*
X142486627Y-46240579D01*
X142337975Y-46209720D01*
X142292075Y-46210662D01*
X142207983Y-46231331D01*
X141891209Y-46231331D01*
X141855643Y-46049452D01*
X141882811Y-45779767D01*
X141886355Y-45772766D01*
X142198466Y-45772766D01*
X142213871Y-45892032D01*
X142323734Y-45987699D01*
X142406643Y-46018762D01*
X142492978Y-46032435D01*
X142555963Y-45983381D01*
X142567432Y-45967388D01*
X142548276Y-45860096D01*
X142443192Y-45750597D01*
X142306442Y-45700424D01*
X142281878Y-45702331D01*
X142198466Y-45772766D01*
X141886355Y-45772766D01*
X141984190Y-45579471D01*
X142113779Y-45490219D01*
X142361678Y-45448146D01*
X142618561Y-45511880D01*
X142839980Y-45658313D01*
X142981489Y-45864339D01*
X142988777Y-45967388D01*
X142998641Y-46106851D01*
G37*
G36*
X139638516Y-46231318D02*
G01*
X139574906Y-46352587D01*
X139509687Y-46476924D01*
X139484254Y-46502054D01*
X139276948Y-46607048D01*
X139022228Y-46635914D01*
X138786655Y-46589335D01*
X138636788Y-46467990D01*
X138587746Y-46358297D01*
X138586773Y-46351083D01*
X138936947Y-46351083D01*
X139057142Y-46364389D01*
X139173612Y-46352587D01*
X139162975Y-46321684D01*
X139124651Y-46310501D01*
X138951309Y-46321684D01*
X138936947Y-46351083D01*
X138586773Y-46351083D01*
X138546501Y-46052356D01*
X138572662Y-45975635D01*
X138908951Y-45975635D01*
X138993807Y-46074126D01*
X139146753Y-46106779D01*
X139270471Y-46036401D01*
X139287600Y-45985506D01*
X139241723Y-45851138D01*
X139203192Y-45823057D01*
X139061859Y-45805808D01*
X138938835Y-45865999D01*
X138908951Y-45975635D01*
X138572662Y-45975635D01*
X138636766Y-45787636D01*
X138838788Y-45601445D01*
X139132814Y-45531091D01*
X139329363Y-45571939D01*
X139529412Y-45731286D01*
X139638778Y-45966926D01*
X139638760Y-45985506D01*
X139638516Y-46231318D01*
G37*
G36*
X142518165Y-42963646D02*
G01*
X142847044Y-43091697D01*
X143184899Y-43279867D01*
X143495691Y-43511806D01*
X143743381Y-43771167D01*
X143756638Y-43788890D01*
X143919591Y-44054796D01*
X144069464Y-44372525D01*
X144179216Y-44677897D01*
X144221809Y-44906735D01*
X144218386Y-44959309D01*
X144167628Y-45035565D01*
X144074234Y-44985649D01*
X143961585Y-44829761D01*
X143853062Y-44588105D01*
X143806904Y-44472635D01*
X143568816Y-44066864D01*
X143246637Y-43699316D01*
X142882188Y-43411985D01*
X142517292Y-43246862D01*
X142329842Y-43198321D01*
X142092627Y-43131138D01*
X141976929Y-43081879D01*
X141954777Y-43036136D01*
X141998198Y-42979501D01*
X142031496Y-42953292D01*
X142234302Y-42912061D01*
X142518165Y-42963646D01*
G37*
G36*
X139564576Y-43117911D02*
G01*
X139693665Y-43194547D01*
X139738357Y-43285291D01*
X139670975Y-43334755D01*
X139663549Y-43335338D01*
X139527449Y-43345993D01*
X139311142Y-43362900D01*
X139180288Y-43379536D01*
X138712282Y-43536367D01*
X138273415Y-43822235D01*
X137902940Y-44206687D01*
X137640113Y-44659270D01*
X137550850Y-44844445D01*
X137437870Y-44975209D01*
X137349867Y-44948934D01*
X137297008Y-44762561D01*
X137309088Y-44624556D01*
X137417809Y-44351090D01*
X137610071Y-44044191D01*
X137856552Y-43748158D01*
X138127928Y-43507289D01*
X138276761Y-43414015D01*
X138611825Y-43263435D01*
X138977005Y-43153360D01*
X139314016Y-43099586D01*
X139564576Y-43117911D01*
G37*
G36*
X133555762Y-47183298D02*
G01*
X133579819Y-47199373D01*
X133633273Y-47292784D01*
X133525376Y-47382049D01*
X133252152Y-47470932D01*
X132865828Y-47568210D01*
X133039363Y-47848994D01*
X133072710Y-47905837D01*
X133152879Y-48085381D01*
X133157576Y-48185102D01*
X133115447Y-48219372D01*
X133027342Y-48223246D01*
X132914911Y-48119424D01*
X132749971Y-47887319D01*
X132645664Y-47725986D01*
X132574499Y-47582935D01*
X132586136Y-47496968D01*
X132672604Y-47419921D01*
X132716587Y-47391008D01*
X132931469Y-47291409D01*
X133185787Y-47212116D01*
X133415299Y-47170342D01*
X133555762Y-47183298D01*
G37*
G36*
X133574813Y-46364894D02*
G01*
X133618508Y-46432131D01*
X133546800Y-46495274D01*
X133495056Y-46511949D01*
X133299809Y-46576032D01*
X133193971Y-46601252D01*
X132983867Y-46622156D01*
X132773079Y-46620456D01*
X132617965Y-46597741D01*
X132574884Y-46555598D01*
X132585938Y-46541599D01*
X132728522Y-46462319D01*
X132960978Y-46393131D01*
X133221030Y-46345913D01*
X133446401Y-46332542D01*
X133574813Y-46364894D01*
G37*
G36*
X133150543Y-44021982D02*
G01*
X133198200Y-44224640D01*
X133221784Y-44372996D01*
X133296476Y-44454906D01*
X133472391Y-44448007D01*
X133531547Y-44442176D01*
X133725678Y-44492220D01*
X133802474Y-44657725D01*
X133755130Y-44927164D01*
X133677163Y-45075804D01*
X133562990Y-45151971D01*
X133474329Y-45097411D01*
X133454459Y-44914017D01*
X133462914Y-44774452D01*
X133410199Y-44709657D01*
X133242793Y-44735191D01*
X133057143Y-44793330D01*
X132906383Y-44868545D01*
X132845861Y-45007226D01*
X132885922Y-45198411D01*
X133012625Y-45369351D01*
X133072741Y-45429706D01*
X133130475Y-45541457D01*
X133128885Y-45559092D01*
X133056417Y-45614780D01*
X132918385Y-45580232D01*
X132773477Y-45467591D01*
X132658807Y-45317796D01*
X132525810Y-45054663D01*
X132486022Y-44824609D01*
X132542403Y-44661638D01*
X132697915Y-44599757D01*
X132703517Y-44599653D01*
X132831525Y-44519298D01*
X132925043Y-44282257D01*
X132988157Y-44090962D01*
X133074679Y-43978656D01*
X133150543Y-44021982D01*
G37*
G36*
X130132654Y-42797276D02*
G01*
X130167142Y-42995180D01*
X130171409Y-43061527D01*
X130230353Y-43326754D01*
X130336475Y-43603750D01*
X130387751Y-43711124D01*
X130472382Y-43895755D01*
X130505809Y-43980660D01*
X130493812Y-43992090D01*
X130384574Y-44007091D01*
X130307251Y-43977563D01*
X130155362Y-43836536D01*
X130001526Y-43624517D01*
X129886888Y-43392331D01*
X129859994Y-43208523D01*
X129886858Y-42989469D01*
X129955793Y-42810898D01*
X130050725Y-42737091D01*
X130132654Y-42797276D01*
G37*
G36*
X133934101Y-42408476D02*
G01*
X133962401Y-42452127D01*
X133920824Y-42547522D01*
X133762238Y-42620959D01*
X133522767Y-42651127D01*
X133448531Y-42653638D01*
X133327718Y-42692988D01*
X133326732Y-42800591D01*
X133363513Y-42918634D01*
X133431148Y-43139257D01*
X133448218Y-43282442D01*
X133363532Y-43329757D01*
X133332998Y-43323817D01*
X133201341Y-43229049D01*
X133052315Y-43056888D01*
X132919975Y-42856836D01*
X132838377Y-42678394D01*
X132841576Y-42571064D01*
X132875384Y-42546871D01*
X133055349Y-42479551D01*
X133310781Y-42423185D01*
X133582103Y-42386639D01*
X133809736Y-42378781D01*
X133934101Y-42408476D01*
G37*
G36*
X131291258Y-42496563D02*
G01*
X131327330Y-42587991D01*
X131302859Y-42800591D01*
X131293590Y-42850200D01*
X131246016Y-43064219D01*
X131206597Y-43186060D01*
X131201374Y-43194499D01*
X131109676Y-43235100D01*
X131021675Y-43163818D01*
X130995025Y-43024640D01*
X131005273Y-42957249D01*
X131064024Y-42674271D01*
X131134982Y-42525997D01*
X131230925Y-42483091D01*
X131291258Y-42496563D01*
G37*
G36*
X130802881Y-42609689D02*
G01*
X130813173Y-42758257D01*
X130782813Y-42891252D01*
X130760965Y-43054591D01*
X130745974Y-43103482D01*
X130632809Y-43160424D01*
X130538733Y-43101200D01*
X130507049Y-42931995D01*
X130557201Y-42701682D01*
X130598311Y-42627425D01*
X130710171Y-42561417D01*
X130802881Y-42609689D01*
G37*
G36*
X133999918Y-41625333D02*
G01*
X134023239Y-41707692D01*
X133896504Y-41803296D01*
X133603533Y-41895268D01*
X133390293Y-41938484D01*
X133116796Y-41965114D01*
X132941124Y-41943561D01*
X132895806Y-41874767D01*
X132950877Y-41822296D01*
X133133473Y-41743656D01*
X133386976Y-41671694D01*
X133654086Y-41619356D01*
X133877501Y-41599587D01*
X133999918Y-41625333D01*
G37*
G36*
X133869475Y-38864712D02*
G01*
X133892475Y-39096424D01*
X133892876Y-39169146D01*
X133911208Y-39349244D01*
X133983609Y-39421717D01*
X134146475Y-39435091D01*
X134226777Y-39436986D01*
X134363336Y-39473528D01*
X134388006Y-39585561D01*
X134317904Y-39810579D01*
X134287272Y-39880440D01*
X134185450Y-40008060D01*
X134098578Y-40001456D01*
X134061809Y-39854587D01*
X134061809Y-39853888D01*
X134042034Y-39744650D01*
X133951776Y-39711941D01*
X133744309Y-39738707D01*
X133693929Y-39748102D01*
X133481919Y-39794670D01*
X133363309Y-39832207D01*
X133300625Y-39945648D01*
X133308764Y-40152537D01*
X133382756Y-40391658D01*
X133511475Y-40604983D01*
X133550607Y-40652373D01*
X133673584Y-40816037D01*
X133723142Y-40907813D01*
X133688997Y-40963475D01*
X133564664Y-40949728D01*
X133389608Y-40854746D01*
X133206778Y-40696137D01*
X133125104Y-40602182D01*
X132995719Y-40365565D01*
X132961142Y-40067703D01*
X132962188Y-39959541D01*
X132987751Y-39776146D01*
X133079372Y-39676351D01*
X133278642Y-39598721D01*
X133553635Y-39481091D01*
X133680431Y-39345611D01*
X133676956Y-39171851D01*
X133663669Y-39095830D01*
X133687947Y-38896685D01*
X133733542Y-38804656D01*
X133811155Y-38762240D01*
X133869475Y-38864712D01*
G37*
G36*
X130087009Y-39614586D02*
G01*
X130148396Y-39725832D01*
X130167142Y-39978928D01*
X130167405Y-40010932D01*
X130218206Y-40336773D01*
X130376448Y-40602178D01*
X130415949Y-40651264D01*
X130518565Y-40812099D01*
X130533972Y-40902705D01*
X130468549Y-40925580D01*
X130328474Y-40861486D01*
X130104938Y-40678954D01*
X130022154Y-40585242D01*
X129906518Y-40354884D01*
X129848538Y-40095597D01*
X129850746Y-39853407D01*
X129915672Y-39674341D01*
X130045848Y-39604424D01*
X130087009Y-39614586D01*
G37*
G36*
X131519722Y-39399137D02*
G01*
X131556388Y-39534101D01*
X131504870Y-39799175D01*
X131418959Y-39999382D01*
X131325132Y-40075873D01*
X131259961Y-39996850D01*
X131249672Y-39765748D01*
X131255092Y-39712801D01*
X131313485Y-39474882D01*
X131406988Y-39363140D01*
X131519722Y-39399137D01*
G37*
G36*
X130838843Y-39389276D02*
G01*
X130846245Y-39394435D01*
X130913100Y-39532176D01*
X130925240Y-39751662D01*
X130877750Y-39978499D01*
X130836747Y-40043717D01*
X130700975Y-40112424D01*
X130634803Y-40090594D01*
X130608500Y-39983797D01*
X130635039Y-39752591D01*
X130670606Y-39549469D01*
X130711406Y-39397878D01*
X130761227Y-39355636D01*
X130838843Y-39389276D01*
G37*
%TD*%
M02*
