M48
; DRILL file {KiCad 8.0.6-8.0.6-0~ubuntu22.04.1} date 2024-11-25T01:07:49+0900
; FORMAT={-:-/ absolute / inch / decimal}
; #@! TF.CreationDate,2024-11-25T01:07:49+09:00
; #@! TF.GenerationSoftware,Kicad,Pcbnew,8.0.6-8.0.6-0~ubuntu22.04.1
; #@! TF.FileFunction,Plated,1,2,PTH
FMAT,2
INCH
; #@! TA.AperFunction,Plated,PTH,ComponentDrill
T1C0.0315
; #@! TA.AperFunction,Plated,PTH,ComponentDrill
T2C0.0354
; #@! TA.AperFunction,Plated,PTH,ComponentDrill
T3C0.0394
; #@! TA.AperFunction,Plated,PTH,ComponentDrill
T4C0.0433
%
G90
G05
T1
X4.6161Y-3.8268
X4.6181Y-3.6299
X4.7146Y-3.8268
X4.7165Y-3.6299
X4.813Y-2.0185
X4.813Y-2.4185
X4.8681Y-3.628
X4.8681Y-3.8209
X4.9665Y-2.315
X4.9665Y-2.4134
X5.1248Y-2.4803
X5.1248Y-2.5803
X5.1248Y-2.6803
X5.1248Y-2.7803
X5.1248Y-2.8803
X5.1248Y-2.9803
X5.1248Y-3.0803
X5.1248Y-3.1803
X5.1248Y-3.2803
X5.1248Y-3.3803
X5.1248Y-3.4803
X5.1248Y-3.5803
X5.1248Y-3.6803
X5.1248Y-3.7803
X5.4248Y-2.4803
X5.4248Y-2.5803
X5.4248Y-2.6803
X5.4248Y-2.7803
X5.4248Y-2.8803
X5.4248Y-2.9803
X5.4248Y-3.0803
X5.4248Y-3.1803
X5.4248Y-3.2803
X5.4248Y-3.3803
X5.4248Y-3.4803
X5.4248Y-3.5803
X5.4248Y-3.6803
X5.4248Y-3.7803
X5.6063Y-3.1543
X5.6063Y-3.5543
T2
X5.6063Y-2.9301
X5.6063Y-3.0301
T3
X5.0213Y-2.1634
X5.1213Y-2.1634
X5.2213Y-2.1634
X5.3213Y-2.1634
X5.3606Y-4.1102
X5.4213Y-2.1634
X5.4606Y-4.1102
X5.5213Y-2.1634
X5.5606Y-4.1102
X5.6606Y-4.1102
T4
X4.7815Y-2.5906
X4.7815Y-2.8465
X4.9587Y-2.5906
X4.9587Y-2.8465
M30
